Explorers (1985)

Ben Crandall, an alien-obsessed kid, dreams one night of a circuit board. Drawing out the circuit, he and his friends Wolfgang and Darren set it up, and discover they have been given the basis for a starship. Setting off in the ThunderRoad, as they name their ship, they find the aliens Ben hopes they would find... but are they what they seem?

Director:
Joe Dante
Writer:
Eric Luke
Release Date:
12 July 1985 (USA) 
 
http://www.imdb.com/title/tt0089114/

trailer:  http://www.trailerfan.com/movie/explorers/trailer

General
Complete name                    : Explorers.avi
Format                           : AVI
Format/Info                      : Audio Video Interleave
File size                        : 701 MiB
Duration                         : 1h 46mn
Overall bit rate                 : 920 Kbps
Writing application              : VirtualDubMod 1.5.4.1 (build 2178/release)
Writing library                  : VirtualDub build 32839/release

Video
ID                               : 0
Format                           : MPEG-4 Visual
Format profile                   : AdvancedSimple@L5
Format settings, BVOP            : Yes
Format settings, QPel            : No
Format settings, GMC             : No warppoints
Format settings, Matrix          : Custom
Codec ID                         : XVID
Codec ID/Hint                    : XviD
Duration                         : 1h 46mn
Bit rate                         : 792 Kbps
Width                            : 608 pixels
Height                           : 352 pixels
Display aspect ratio             : 16:9
Frame rate                       : 23.976 fps
Resolution                       : 24 bits
Colorimetry                      : 4:2:0
Scan type                        : Progressive
Bits/(Pixel*Frame)               : 0.154
Stream size                      : 603 MiB (86%)
Writing library                  : XviD 1.2.1 (UTC 2008-12-04)

Audio
ID                               : 1
Format                           : MPEG Audio
Format version                   : Version 1
Format profile                   : Layer 3
Format settings, Mode            : Joint stereo / MS Stereo
Codec ID                         : 55
Codec ID/Hint                    : MP3
Duration                         : 1h 46mn
Bit rate mode                    : Constant
Bit rate                         : 32.0 Kbps
Channel(s)                       : 2 channels
Sampling rate                    : 48.0 KHz
Resolution                       : 16 bits
Stream size                      : 88.1 MiB (13%)
Alignment                        : Aligned on interleaves
Interleave, duration             : 24 ms (0.58 video frame)
Writing library                  : LAME3.98.2

